<svg xmlns="http://www.w3.org/2000/svg" version="1.1" xmlns:xlink="http://www.w3.org/1999/xlink" xmlns:svgjs="http://svgjs.dev/svgjs" width="1440" height="560" preserveAspectRatio="none" viewBox="0 0 1440 560"><g mask="url(&quot;#SvgjsMask1007&quot;)" fill="none"><path d="M354.1 664.2C525.52 656.06 642.96 366.66 969.56 360.18 1296.16 353.7 1427.53 226.56 1585.02 225.78" stroke="rgba(255, 182, 0, 0.2)" stroke-width="2"></path><path d="M358.7 627.18C498.28 584.26 448.06 185.94 740.06 184.73 1032.06 183.52 1305.19 390.1 1502.77 391.93" stroke="rgba(255, 182, 0, 0.2)" stroke-width="2"></path><path d="M390.42 646.97C546.64 644.99 668.54 473.19 988.43 465.55 1308.33 457.91 1422.09 197.6 1586.45 191.15" stroke="rgba(255, 182, 0, 0.2)" stroke-width="2"></path><path d="M86.97 598.91C224.28 586.62 312.56 303.83 551.75 302.2 790.95 300.57 784.14 372.2 1016.54 372.2 1248.93 372.2 1363.81 302.4 1481.32 302.2" stroke="rgba(255, 182, 0, 0.2)" stroke-width="2"></path><path d="M668.1 640.01C784.56 589.07 732.41 225.06 958.71 222.78 1185.01 220.5 1388.29 394.54 1539.93 396.38" stroke="rgba(255, 182, 0, 0.2)" stroke-width="2"></path></g><defs><mask id="SvgjsMask1007"><rect width="1440" height="560" fill="#ffffff"></rect></mask></defs></svg>